<?xml version="1.0" encoding="UTF-8" standalone="no"?>
<svg
   xmlns:dc="http://purl.org/dc/elements/1.1/"
   xmlns:cc="http://creativecommons.org/ns#"
   xmlns:rdf="http://www.w3.org/1999/02/22-rdf-syntax-ns#"
   xmlns:svg="http://www.w3.org/2000/svg"
   xmlns="http://www.w3.org/2000/svg"
   xmlns:sodipodi="http://sodipodi.sourceforge.net/DTD/sodipodi-0.dtd"
   xmlns:inkscape="http://www.inkscape.org/namespaces/inkscape"
   width="24"
   height="24"
   viewBox="0 0 24 24"
   version="1.1"
   id="svg4624"
   sodipodi:docname="restart.svg"
   inkscape:version="0.92.3 (2405546, 2018-03-11)">
  <metadata
     id="metadata4630">
    <rdf:RDF>
      <cc:Work
         rdf:about="">
        <dc:format>image/svg+xml</dc:format>
        <dc:type
           rdf:resource="http://purl.org/dc/dcmitype/StillImage" />
      </cc:Work>
    </rdf:RDF>
  </metadata>
  <defs
     id="defs4628" />
  <sodipodi:namedview
     pagecolor="#ffffff"
     bordercolor="#666666"
     borderopacity="1"
     objecttolerance="10"
     gridtolerance="10"
     guidetolerance="10"
     inkscape:pageopacity="0"
     inkscape:pageshadow="2"
     inkscape:window-width="1920"
     inkscape:window-height="1080"
     id="namedview4626"
     showgrid="false"
     inkscape:zoom="36.75"
     inkscape:cx="12"
     inkscape:cy="12"
     inkscape:window-x="0"
     inkscape:window-y="0"
     inkscape:window-maximized="0"
     inkscape:current-layer="svg4624" />
  <path
     fill="none"
     d="M0 0h24v24H0V0z"
     id="path4620" />
  <path
     d="M17.65 6.35c-1.63-1.63-3.94-2.57-6.48-2.31-3.67.37-6.69 3.35-7.1 7.02C3.52 15.91 7.27 20 12 20c3.19 0 5.93-1.87 7.21-4.56.32-.67-.16-1.44-.9-1.44-.37 0-.72.2-.88.53-1.13 2.43-3.84 3.97-6.8 3.31-2.22-.49-4.01-2.3-4.48-4.52C5.31 9.44 8.26 6 12 6c1.66 0 3.14.69 4.22 1.78l-1.51 1.51c-.63.63-.19 1.71.7 1.71H19c.55 0 1-.45 1-1V6.41c0-.89-1.08-1.34-1.71-.71l-.64.65z"
     id="path4622" />
  <path
     style="fill:#4b4b4b;fill-opacity:1;stroke-width:0.02721088"
     d="m 11.401361,19.96754 c -0.05238,-0.0061 -0.209793,-0.02361 -0.349803,-0.0389 C 10.091201,19.82381 9.0367695,19.486677 8.1632653,19.00517 6.1076057,17.872015 4.6469712,15.880999 4.1908887,13.590356 4.06582,12.962206 4.0422389,12.704816 4.0436911,11.983673 4.0450808,11.293555 4.0780174,10.938986 4.1925393,10.381289 4.6836267,7.9897997 6.3123813,5.9007511 8.5338931,4.8130466 10.227084,3.9840205 12.180459,3.7903147 14.008032,4.2702053 c 1.274591,0.3346864 2.48708,1.0044195 3.409958,1.8835314 0.113908,0.108506 0.218654,0.1972837 0.232769,0.1972837 0.01412,0 0.193768,-0.1707242 0.399228,-0.3793872 0.471998,-0.4793549 0.565618,-0.5321774 0.94321,-0.5321774 0.223715,0 0.279508,0.00984 0.41458,0.073148 0.304047,0.142497 0.51876,0.4336879 0.56736,0.7694506 0.03411,0.2356243 0.03099,3.6341317 -0.0035,3.8468506 -0.05441,0.335318 -0.228026,0.582422 -0.520697,0.741105 l -0.171998,0.09325 h -2.068028 -2.068027 l -0.14966,-0.07097 c -0.197805,-0.0938 -0.368378,-0.269561 -0.472486,-0.486852 -0.07446,-0.155399 -0.08471,-0.204949 -0.08445,-0.4081626 5.03e-4,-0.3989137 0.01835,-0.4242925 0.966489,-1.3747339 0.448216,-0.4493009 0.814937,-0.8304533 0.814937,-0.8470049 0,-0.064498 -0.588196,-0.5531728 -0.976542,-0.8113145 -0.957867,-0.6367139 -2.068206,-0.9669467 -3.251158,-0.9669467 -0.490058,0 -0.746427,0.02559 -1.228082,0.1225822 C 8.9806931,6.4785492 7.4017807,7.713508 6.6001823,9.3749853 6.181961,10.241835 6.0020572,11.036046 6.0031016,12.010884 c 0.00104,0.968793 0.1998231,1.834948 0.6115355,2.664607 1.0257267,2.066984 3.0600456,3.321788 5.3853629,3.321788 1.575548,0 3.02893,-0.584691 4.159788,-1.673469 0.480312,-0.46244 0.849001,-0.957471 1.185262,-1.591425 0.203003,-0.382723 0.315982,-0.514432 0.532501,-0.620781 0.133765,-0.0657 0.180004,-0.07351 0.435374,-0.07351 0.260612,0 0.298475,0.0067 0.430953,0.07649 0.322536,0.169876 0.520087,0.469121 0.542742,0.822136 0.01669,0.25999 -0.03059,0.409004 -0.267375,0.842866 -1.032293,1.89144 -2.698383,3.251358 -4.747136,3.87477 -0.707244,0.215206 -1.303919,0.303235 -2.136055,0.315139 -0.3517,0.005 -0.682313,0.0041 -0.734693,-0.002 z"
     id="path4632"
     inkscape:connector-curvature="0" />
</svg>
