<?xml version="1.0" encoding="UTF-8" standalone="no"?>
<svg
   xmlns:dc="http://purl.org/dc/elements/1.1/"
   xmlns:cc="http://creativecommons.org/ns#"
   xmlns:rdf="http://www.w3.org/1999/02/22-rdf-syntax-ns#"
   xmlns:svg="http://www.w3.org/2000/svg"
   xmlns="http://www.w3.org/2000/svg"
   xmlns:sodipodi="http://sodipodi.sourceforge.net/DTD/sodipodi-0.dtd"
   xmlns:inkscape="http://www.inkscape.org/namespaces/inkscape"
   width="24"
   height="24"
   viewBox="0 0 24 24"
   version="1.1"
   id="svg4565"
   sodipodi:docname="up.svg"
   inkscape:version="0.92.3 (2405546, 2018-03-11)">
  <metadata
     id="metadata4571">
    <rdf:RDF>
      <cc:Work
         rdf:about="">
        <dc:format>image/svg+xml</dc:format>
        <dc:type
           rdf:resource="http://purl.org/dc/dcmitype/StillImage" />
      </cc:Work>
    </rdf:RDF>
  </metadata>
  <defs
     id="defs4569" />
  <sodipodi:namedview
     pagecolor="#ffffff"
     bordercolor="#666666"
     borderopacity="1"
     objecttolerance="10"
     gridtolerance="10"
     guidetolerance="10"
     inkscape:pageopacity="0"
     inkscape:pageshadow="2"
     inkscape:window-width="1920"
     inkscape:window-height="1080"
     id="namedview4567"
     showgrid="false"
     inkscape:zoom="35.583333"
     inkscape:cx="12"
     inkscape:cy="12"
     inkscape:window-x="0"
     inkscape:window-y="0"
     inkscape:window-maximized="1"
     inkscape:current-layer="svg4565" />
  <path
     d="M8.12 14.71L12 10.83l3.88 3.88c.39.39 1.02.39 1.41 0 .39-.39.39-1.02 0-1.41L12.7 8.71c-.39-.39-1.02-.39-1.41 0L6.7 13.3c-.39.39-.39 1.02 0 1.41.39.38 1.03.39 1.42 0z"
     id="path4563" />
  <path
     style="fill:#4b4b4b;fill-opacity:1;stroke-width:0.02810304"
     d="M 7.1642908,14.951737 C 6.8984254,14.880052 6.6465022,14.676252 6.5219399,14.432089 6.3967018,14.186602 6.4010868,13.819117 6.5323448,13.560092 6.581443,13.463201 7.2425935,12.78177 8.9976103,11.019205 11.732975,8.2720756 11.517278,8.4562061 12,8.4562061 c 0.233716,0 0.286237,0.00951 0.421546,0.076292 0.128816,0.063582 0.557672,0.4802685 2.574217,2.5011709 1.942655,1.946854 2.432786,2.452579 2.486284,2.565394 0.05449,0.114908 0.06679,0.186686 0.06747,0.393864 7.59e-4,0.230049 -0.0076,0.270477 -0.09077,0.439599 -0.106607,0.216747 -0.258821,0.36529 -0.481132,0.46953 -0.132526,0.06214 -0.196378,0.07393 -0.396816,0.07324 -0.443516,-0.0015 -0.305236,0.11417 -2.578548,-2.157087 l -2.002435,-2.000626 -1.988197,1.983815 c -1.0935083,1.091099 -2.0331856,2.010485 -2.0881718,2.043082 -0.121729,0.07216 -0.3958749,0.146364 -0.5312222,0.143783 -0.054715,-10e-4 -0.1572841,-0.01748 -0.2279312,-0.03653 z"
     id="path4573"
     inkscape:connector-curvature="0" />
</svg>
